<?xml version="1.0" encoding="utf-8"?>
<svg id="master-artboard" viewBox="0 0 1400 980" version="1.1" xmlns="http://www.w3.org/2000/svg" x="0px" y="0px" style="enable-background:new 0 0 336 235.2;" width="400px" height="280px"><g transform="matrix(2.456140350877193, 0, 0, 2.456140350877193, -0.000013094553651171736, 121.57894736842104)"><metadata id="metadata8">
    
  </metadata><g id="g10">
    <path style="opacity: 1; fill: rgb(0, 0, 0); fill-opacity: 1; stroke: none; stroke-width: 11.9384; stroke-linecap: round; paint-order: markers;" d="m 369.43295,237.33281 -4.69961,26.22998 20.4973,5.93739 -6.32913,15.44442 -29.51912,-12.14641 4.3155,-37.52653 -233.05174,-53.70098 -6.04652,19.47812 21.24717,3.92919 -3.37369,11.29556 -31.18657,-5.41997 4.92724,-33.47491 -27.677485,-5.03945 -1.401075,25.47097 17.528697,2.06644 -1.226241,12.66879 -31.094836,-6.73378 0.3428,-37.13201 -22.3569,-6.53367 2.130986,-18.4168 c -47.201007,2.56402 -36.3983224,-43.41383 -8.841317,-45.029615 -5.23646,9.739555 -15.266043,26.301835 10.724565,26.482785 0,0 18.094512,-144.498255 205.262086,-109.803508 192.87345,35.752429 182.83024,163.621128 182.83024,163.621128 15.56479,-13.05482 23.64086,-48.55353 31.73712,-90.463767 l -18.4216,2.891177 -2.00018,-17.381783 21.50848,-4.358426 -8.20892,-19.881903 76.7069,-2.699203 -7.38779,21.590696 23.80378,0.757761 1.16641,16.993325 -11.66254,0.788945 c 0,0 25.49641,20.610348 19.3737,44.941318 -6.12271,24.33098 -55.6251,17.83235 -55.6251,17.83235 -19.01428,33.58601 -38.74563,66.09767 -72.13887,78.14017 l -2.70426,22.71292 -14.36817,-2.82088 -4.6129,24.87033 20.55384,4.18002 -3.20098,12.907 -33.49041,-7.50927 5.50837,-39.52578 z" id="path850" transform="matrix(1.017237424850464, -0.18237636983394626, 0.18237636983394626, 1.017237424850464, -30.072986002810296, 62.860306181755305)"/>
    <path style="opacity:1;fill:#ffffff;fill-opacity:1;stroke-width:1.67563;stroke-linecap:round;paint-order:markers fill stroke" d="m 480.98487,182.00297 c -1.94762,-1.72075 -3.77376,-4.71743 -5.27772,-8.11116 1.05486,-0.80318 4.0821,-4.0864 6.07656,-5.72006 1.41389,2.25288 2.5931,4.31232 5.38101,5.50973 -1.4919,2.36607 -3.54506,4.56721 -6.17985,8.32149 z" id="path854" transform="matrix(1.017237424850464, -0.18237636983394626, 0.18237636983394626, 1.017237424850464, -30.072986002810296, 62.860306181755305)"/>
    <path style="opacity:1;fill:#ffffff;fill-opacity:1;stroke-width:1.0222;stroke-linecap:round;paint-order:markers fill stroke" d="m 476.22547,154.30265 c -0.41917,-4.72353 -3.18175,-8.46655 -5.90762,-8.16184 -2.56049,0.28623 -2.16339,9.8446 -1.68879,12.48378 z" id="path854-4-3-8" transform="matrix(1.017237424850464, -0.18237636983394626, 0.18237636983394626, 1.017237424850464, -30.072986002810296, 62.860306181755305)"/>
    <path style="opacity:1;fill:#ffffff;fill-opacity:1;stroke-width:0.873502;stroke-linecap:round;paint-order:markers fill stroke" d="m 496.44761,97.725357 c -2.08256,-0.153449 -8.93146,-2.159644 -9.27235,-5.675493 -0.26244,-2.706637 7.73239,-5.417563 9.81783,-5.459423 z" id="path854-4-3-8-1" transform="matrix(1.017237424850464, -0.18237636983394626, 0.18237636983394626, 1.017237424850464, -30.072986002810296, 62.860306181755305)"/>
    <path style="opacity:1;fill:#ffffff;fill-opacity:1;stroke-width:0.873502;stroke-linecap:round;paint-order:markers fill stroke" d="m 501.90252,98.623073 c 6.38333,0.357977 12.9869,-2.520969 12.78858,-5.049907 -0.30553,-3.896223 -9.88114,-7.283315 -12.36714,-6.72718 z" id="path854-4-3-8-1-5" transform="matrix(1.017237424850464, -0.18237636983394626, 0.18237636983394626, 1.017237424850464, -30.072986002810296, 62.860306181755305)"/>
    <path style="opacity:1;fill:#ffffff;fill-opacity:1;stroke-width:0.974506;stroke-linecap:round;paint-order:markers fill stroke" d="m 474.19598,171.82672 c -0.84316,-1.25298 -4.28149,-9.40943 -4.52341,-10.70018 2.01187,-1.34999 5.27052,-3.33537 6.92048,-4.46146 1.3025,2.99535 3.11254,6.97041 3.60308,9.05051 -2.26571,2.50001 -3.56808,3.70716 -6.00015,6.11113 z" id="path862" transform="matrix(1.017237424850464, -0.18237636983394626, 0.18237636983394626, 1.017237424850464, -30.072986002810296, 62.860306181755305)"/>
    <g id="g1150" transform="matrix(0.3409636914730072, 0.07201425731182098, -0.06526334583759308, 0.345070481300354, 12.480231460602909, 471.7722903583631)" style="fill:#feffff;fill-opacity:1;stroke-width:2.34607">
      <g id="g1146" style="fill:#feffff;fill-opacity:1;stroke-width:2.34607">
        <g id="g1144" style="fill:#feffff;fill-opacity:1;stroke-width:2.34607">
          <path id="path1122" d="m 88.211,74.299 c 0,0.553 0.368,-5.341 0.92,-6.26 0,-2.578 3.866,-22.65 6.628,-35.908 1.657,-8.288 5.156,-21.361 5.156,-21.361 1.29,-5.341 4.419,-8.288 7.734,-9.576 6.077,-2.209 21.729,2.947 25.965,6.998 4.234,4.234 1.472,15.284 -0.185,20.992 l -25.597,97.043 -3.683,12.154 c -0.736,2.21 -1.104,2.579 0.185,6.075 0.551,4.052 0.37,5.155 -0.368,6.445 -4.051,4.605 -18.598,2.579 -24.123,1.104 -18.23,-5.34 -15.1,-7.734 -17.862,-26.517 l -8.839,-56.165 -0.92,-5.524 -2.947,22.096 c -3.129,22.285 -13.626,57.644 -13.994,58.373 -1.289,4.975 -1.289,8.29 -8.104,9.21 -6.445,1.105 -22.833,-2.209 -26.517,-5.709 -4.234,-4.23 0.922,-19.703 1.29,-21.728 L 30.94,18.871 c 0.921,-3.683 4.236,-16.389 9.575,-18.415 4.236,-1.657 20.257,1.475 26.701,4.972 12.155,6.261 13.995,26.702 17.495,44.011 1.842,9.392 3.5,24.86 3.5,24.86 z" fill="#ff6702" style="fill:#feffff;fill-opacity:1;stroke-width:5.3424"/>
          <path id="path1124" d="m 156.064,28.709 c 2.542,-0.299 19.45,1.946 23.938,4.189 4.041,1.945 0.899,10.024 -1.196,18.103 l -21.246,84.537 c -2.542,9.874 -4.339,18.704 -12.718,17.807 -3.74,-0.299 -16.159,-2.396 -20.049,-6.283 -4.787,-4.491 -0.449,-16.459 0.299,-19.002 L 149.03,38.585 c 1.948,-7.182 3.892,-9.427 7.034,-9.876 z" fill="#ff6702" style="fill:#feffff;fill-opacity:1;stroke-width:5.3424"/>
          <path id="path1126" d="m 234.312,60.729 c 0.15,-2.096 -1.645,-3.441 -4.189,-2.994 -0.898,0.149 -2.393,1.048 -3.741,2.095 -11.072,9.876 -17.804,44.586 -17.356,53.564 0.15,2.845 1.047,5.237 2.993,6.286 1.196,0.597 2.993,0.597 4.488,-0.898 3.292,-3.144 5.237,-11.223 9.577,-14.365 4.339,-2.992 13.466,-4.038 19.15,-1.794 2.693,1.048 4.788,2.546 5.087,5.388 0.599,5.984 -5.685,25.585 -18.104,36.058 -9.126,7.78 -24.686,11.221 -33.364,8.379 -10.773,-3.592 -16.309,-13.018 -18.703,-22.893 -5.536,-22.293 2.543,-64.636 24.239,-86.629 11.819,-12.12 28.28,-16.16 39.949,-13.615 7.481,1.646 13.466,7.031 16.008,14.364 1.797,5.236 1.797,20.498 -2.693,25.882 -4.938,6.133 -13.315,6.584 -18.703,5.835 -3.142,-0.299 -5.684,-1.646 -6.733,-4.19 -0.748,-1.795 1.796,-5.835 2.095,-10.473 z" fill="#ff6702" style="fill:#feffff;fill-opacity:1;stroke-width:5.3424"/>
          <path id="path1128" d="m 298.046,75.689 c 15.261,-7.778 21.995,-15.259 29.326,-29.624 2.095,-4.041 3.741,-8.679 4.339,-10.475 1.347,-3.889 1.347,-5.535 5.834,-6.134 2.244,-0.148 18.553,4.489 21.096,7.631 2.246,2.992 -1.645,11.52 -2.693,13.615 -7.333,18.104 -24.389,41.893 -45.484,49.824 1.497,1.945 23.491,41.297 24.239,43.092 1.645,3.44 3.44,6.134 1.345,8.977 -3.439,4.637 -17.503,11.073 -20.795,10.774 -4.489,-0.151 -11.223,-14.517 -12.568,-17.358 l -15.261,-30.519 -7.481,33.212 c -0.597,2.396 -1.646,5.089 -4.041,4.64 -3.739,-0.45 -21.544,-3.591 -23.79,-5.984 -3.142,-3.141 0.3,-13.616 1.348,-17.207 l 22.292,-85.882 c 1.047,-4.189 1.197,-4.338 2.394,-8.678 0.749,-3.141 2.396,-6.283 6.882,-6.881 2.693,-0.3 19.151,1.645 22.442,4.937 3.292,3.44 -1.046,14.96 -1.945,18.104 z" fill="#ff6702" style="fill:#feffff;fill-opacity:1;stroke-width:5.3424"/>
          <path id="path1130" d="m 386.018,58.634 c -1.197,0 9.725,3.891 10.771,7.331 0.449,0.897 -2.094,13.167 -2.094,13.167 h 11.969 c 2.244,0 18.403,-0.299 20.348,3.292 1.647,2.993 -3.741,19.75 -5.836,22.893 -3.292,5.686 -12.865,3.74 -17.654,3.441 h -17.207 l -3.891,15.408 h 15.411 c 8.828,0 16.906,-0.447 18.552,3.293 1.348,3.291 -2.094,16.758 -4.34,20.347 -3.439,5.388 -13.166,5.089 -17.654,4.94 h -17.954 c -7.481,0.146 -13.915,0.599 -20.499,-7.482 -8.978,-11.221 -5.834,-12.567 -2.843,-26.632 l 2.244,-10.174 c 0.749,-4.041 -5.386,-0.45 -5.538,-5.536 -0.148,-2.993 2.845,-20.199 7.184,-22.742 1.944,-1.198 4.04,-0.899 6.283,-0.899 0,0 2.843,-10.174 4.937,-20.646 -3.741,-0.449 -7.181,0 -8.529,-2.843 -1.346,-2.542 4.788,-20.199 5.686,-21.845 2.843,-4.938 9.875,-4.338 17.056,-4.338 h 40.847 c 8.679,0 14.662,0.598 16.458,4.04 1.347,2.992 -3.442,18.554 -5.687,21.844 -2.094,3.74 -4.488,3.891 -8.978,3.891 -1.346,0 -2.693,-0.299 -4.787,-0.45 -1.646,-0.148 -3.592,-0.299 -5.239,-0.299 z" fill="#ff6702" style="fill:#feffff;fill-opacity:1;stroke-width:5.3424"/>
          <path id="path1132" d="m 462.019,120.728 h 17.208 c 12.417,0 14.812,-0.749 16.757,2.394 1.646,2.691 -4.788,22.742 -5.387,24.091 -3.292,6.432 -9.125,5.534 -16.906,5.534 h -14.063 c -7.333,0 -14.365,1.048 -19.75,-5.986 -12.418,-15.708 -11.67,-17.205 -7.78,-33.215 l 18.853,-73.912 c 1.944,-4.638 2.394,-9.426 7.631,-10.772 4.338,-1.197 21.694,2.992 23.788,5.386 2.693,2.544 -1.346,14.362 -1.945,17.356 z" fill="#ff6702" style="fill:#feffff;fill-opacity:1;stroke-width:5.3424"/>
          <path id="path1134" d="m 558.373,43.971 c 4.338,-3.891 16.456,-15.112 20.646,-13.766 4.786,1.346 7.332,8.378 8.827,13.614 6.584,24.538 1.646,69.125 -21.693,93.96 -11.521,12.12 -27.829,17.655 -38.752,15.265 -13.468,-2.845 -21.396,-10.625 -26.483,-24.988 -7.48,-21.696 -0.896,-56.855 17.207,-78.85 10.623,-12.717 27.532,-21.544 36.657,-20.498 2.691,0.299 4.338,1.198 5.087,3.292 0.748,1.796 -0.3,6.584 -1.496,11.971 z m -2.843,12.568 c -0.451,1.197 -0.451,2.245 -1.647,3.292 -0.599,0.899 -2.691,1.947 -3.291,2.394 -2.243,1.498 -2.691,1.795 -3.59,2.694 -12.569,10.473 -19.151,35.01 -17.506,45.634 0.747,4.488 2.244,7.632 5.386,9.128 2.692,1.345 7.182,-1.496 8.38,-2.697 14.961,-15.559 16.009,-47.727 13.614,-63.286 -0.451,-0.302 -1.346,2.392 -1.346,2.841 z" fill="#ff6702" style="fill:#feffff;fill-opacity:1;stroke-width:5.3424"/>
          <path id="path1136" d="m 608.788,60.878 c -3.441,1.346 -7.479,4.339 -10.471,3.59 -1.498,-0.598 -1.947,-1.945 -1.947,-3.891 -0.148,-0.897 1.347,-5.087 1.646,-6.134 l 1.048,-3.441 c 3.592,-12.269 2.094,-16.606 14.514,-19.899 17.207,-4.338 43.391,-4.787 60.446,12.27 13.466,13.316 14.362,37.557 10.323,53.115 -7.778,29.476 -25.436,47.131 -54.609,55.36 -5.836,1.795 -17.807,3.438 -23.792,-2.244 -17.505,-16.609 -14.363,-18.556 -10.771,-35.462 z m 42.194,39.649 c 4.789,-9.877 6.883,-24.389 0.147,-34.264 -6.882,-10.024 -21.545,-10.024 -30.222,-8.978 4.638,0.898 11.817,2.245 15.71,6.435 3.44,4.038 -0.299,13.766 -1.349,17.355 l -9.724,39.649 c 12.72,-2.391 20.051,-9.722 25.438,-20.197 z" fill="#ff6702" style="fill:#feffff;fill-opacity:1;stroke-width:5.3424"/>
          <path id="path1138" d="m 724.59,58.634 c -1.197,0 9.727,3.891 10.773,7.331 0.447,0.897 -2.096,13.167 -2.096,13.167 h 11.971 c 2.242,0 18.4,-0.299 20.348,3.292 1.647,2.993 -3.741,19.75 -5.834,22.893 -3.293,5.686 -12.87,3.74 -17.656,3.441 H 724.891 L 721,124.166 h 15.409 c 8.829,0 16.906,-0.447 18.553,3.293 1.348,3.291 -2.093,16.758 -4.338,20.347 -3.441,5.388 -13.167,5.089 -17.655,4.94 h -17.957 c -7.479,0.146 -13.913,0.599 -20.496,-7.482 -8.976,-11.221 -5.835,-12.567 -2.842,-26.632 l 2.242,-10.174 c 0.751,-4.041 -5.386,-0.45 -5.534,-5.536 -0.148,-2.993 2.843,-20.199 7.181,-22.742 1.945,-1.198 4.04,-0.899 6.285,-0.899 0,0 2.845,-10.174 4.938,-20.646 -3.741,-0.449 -7.183,0 -8.528,-2.843 -1.346,-2.542 4.787,-20.199 5.687,-21.845 2.842,-4.938 9.875,-4.338 17.058,-4.338 h 40.845 c 8.68,0 14.665,0.598 16.459,4.04 1.347,2.992 -3.441,18.554 -5.685,21.844 -2.095,3.74 -4.489,3.891 -8.98,3.891 -1.345,0 -2.69,-0.299 -4.787,-0.45 -1.645,-0.148 -3.589,-0.299 -5.235,-0.299 z" fill="#ff6702" style="fill:#feffff;fill-opacity:1;stroke-width:5.3424"/>
          <path id="path1140" d="m 829.618,43.971 c 4.341,-3.891 16.458,-15.112 20.647,-13.766 4.787,1.346 7.331,8.378 8.826,13.614 6.585,24.538 1.647,69.125 -21.692,93.96 -11.521,12.12 -27.83,17.655 -38.751,15.265 -13.468,-2.845 -21.395,-10.625 -26.484,-24.988 -7.479,-21.696 -0.896,-56.855 17.208,-78.85 10.621,-12.717 27.53,-21.544 36.656,-20.498 2.691,0.299 4.34,1.198 5.086,3.292 0.75,1.796 -0.299,6.584 -1.496,11.971 z m -2.841,12.568 c -0.45,1.197 -0.45,2.245 -1.647,3.292 -0.6,0.899 -2.694,1.947 -3.292,2.394 -2.243,1.498 -2.693,1.795 -3.591,2.694 -12.569,10.473 -19.15,35.01 -17.505,45.634 0.747,4.488 2.244,7.632 5.386,9.128 2.691,1.345 7.183,-1.496 8.38,-2.697 14.961,-15.559 16.009,-47.727 13.614,-63.286 -0.449,-0.302 -1.345,2.392 -1.345,2.841 z" fill="#ff6702" style="fill:#feffff;fill-opacity:1;stroke-width:5.3424"/>
          <path id="path1142" d="m 923.723,89.006 c 0,0.451 0.302,-4.338 0.75,-5.086 0,-2.097 3.145,-18.402 5.387,-29.176 1.347,-6.733 4.189,-17.356 4.189,-17.356 1.046,-4.338 3.592,-6.731 6.285,-7.78 4.937,-1.796 17.653,2.395 21.096,5.685 3.441,3.441 1.197,12.419 -0.147,17.057 l -20.802,78.852 -2.991,9.874 c -0.598,1.794 -0.896,2.096 0.15,4.937 0.447,3.294 0.3,4.189 -0.301,5.236 -3.292,3.74 -15.11,2.097 -19.599,0.896 -14.814,-4.339 -12.27,-6.282 -14.516,-21.545 l -7.181,-45.633 -0.751,-4.491 -2.393,17.957 c -2.542,18.105 -11.07,46.829 -11.37,47.43 -1.046,4.038 -1.046,6.732 -6.583,7.481 -5.237,0.897 -18.555,-1.797 -21.547,-4.64 -3.441,-3.442 0.751,-16.011 1.05,-17.655 L 877.19,43.97 c 0.746,-2.993 3.439,-13.315 7.779,-14.962 3.442,-1.347 16.459,1.198 21.694,4.041 9.873,5.086 11.372,21.694 14.215,35.759 1.5,7.63 2.845,20.198 2.845,20.198 z" fill="#ff6702" style="fill:#feffff;fill-opacity:1;stroke-width:5.3424"/>
        </g>
      </g>
      <path id="path1148" d="m 985.56033,54.162228 0.13418,-6.50282 4.19965,-0.08023 c 2.19665,-0.02905 4.6838,0.535331 4.76265,3.211986 0,3.267318 -2.62271,3.451294 -5.32427,3.371064 z m 0,2.72922 3.66432,0.106513 5.53729,9.259705 3.71962,-0.109279 -5.93703,-9.367602 c 2.78317,-0.239308 5.48196,-2.030661 5.40173,-5.858209 -0.0526,-4.145703 -2.67389,-6.020053 -7.5223,-6.020053 l -8.1849,-0.10513 V 66.14977 h 3.31712 v -9.258322 z m 3.84968,17.12921 c 10.00945,0 18.76279,-7.815557 18.78769,-18.545693 -0.1341,-10.572442 -8.80314,-18.219238 -18.78769,-18.407365 -10.13809,0.0249 -18.78362,7.782358 -18.78362,18.541543 -0.10375,10.595958 8.64553,18.353417 18.78362,18.411515 M 974.34743,55.584244 c -0.0816,-8.913884 6.47515,-15.445753 15.06396,-15.445753 8.21533,0 15.01561,6.690947 14.90491,15.470652 0,8.826738 -6.6384,15.303275 -14.90491,15.249327 -8.3246,0.109279 -15.22443,-6.581667 -15.06396,-15.274226" fill="#ff6702" style="fill:#feffff;fill-opacity:1;stroke-width:7.39006"/>
    </g>
  </g></g></svg>